<svg id="Layer_1" data-name="Layer 1" xmlns="http://www.w3.org/2000/svg" xmlns:xlink="http://www.w3.org/1999/xlink" viewBox="0 0 250 64.89"><defs><style>.cls-1{fill:url(#linear-gradient);}.cls-2{fill:#fff;}.cls-3{opacity:0.56;}</style><linearGradient id="linear-gradient" x1="-162.47" y1="427.62" x2="-161.57" y2="427.62" gradientTransform="matrix(65.14, 0, 0, -72.73, 10583.76, 31131.29)" gradientUnits="userSpaceOnUse"><stop offset="0" stop-color="#ea4c76"/><stop offset="1" stop-color="#6e3890"/></linearGradient></defs><title>logo-dark</title><g id="Groupe_4040" data-name="Groupe 4040"><g id="Groupe_605" data-name="Groupe 605"><g id="Groupe_624" data-name="Groupe 624"><g id="Groupe_232" data-name="Groupe 232"><path id="Tracé_279" data-name="Tracé 279" class="cls-1" d="M32.33,41.72c1.93-1.11,3.72-2,5.32-3.13a3.31,3.31,0,0,0,1.14-2.28c.14-6.67.17-13.34.21-20a5.93,5.93,0,0,0-3.07-5.36c-6.32-4-6.7-4-13.11-.18C19,13,15.15,15.24,11.23,17.34a7,7,0,0,0-4,6.91C7.26,31.89,7,39.53,7,47.17a59,59,0,0,0,.7,6.5c-1.69-1.14-3.94-2.23-5.59-3.91A7.57,7.57,0,0,1,.2,45.06C0,36.68.11,28.3.14,19.92a7.1,7.1,0,0,1,3.72-6.5L25.5,1A7,7,0,0,1,33,1c3.65,2.12,7.32,4.19,10.84,6.51a4.91,4.91,0,0,1,1.79,3.06,31,31,0,0,1,.06,5.28c0,7.3-.18,14.6-.12,21.9,0,2.81-.88,4.73-3.46,6.06-3.44,1.76-6.81,3.7-10.1,5.74s-6.14,0-6-3.57c.23-7,.11-13.91.14-20.87V23c-2.05,1.19-3.91,2.15-5.62,3.33a2.84,2.84,0,0,0-.94,2q-.16,10.17-.17,20.36a5.59,5.59,0,0,0,2.82,5c6.34,4.12,6.88,4.13,13.4.29,3.83-2.25,7.67-4.48,11.59-6.59a7,7,0,0,0,3.94-6.78c0-7.87.19-15.74.17-23.6a44.14,44.14,0,0,0-.75-5.85c1.51,1,3.37,2.05,5.13,3.27a6.05,6.05,0,0,1,2.51,5.2q.07,12.65,0,25.31a6.92,6.92,0,0,1-3.64,6.36Q43.66,57.54,32.76,63.77a7,7,0,0,1-7.47-.08c-3.59-2.1-7.15-4.25-10.74-6.35-1.88-1.1-2-2.92-2-4.78,0-3.93.14-7.87.18-11.8.05-4.68.12-9.35,0-14A5.64,5.64,0,0,1,16,21.05c3.53-1.85,6.92-4,10.42-5.87s5.86-.43,5.88,3.47C32.34,26.22,32.33,33.81,32.33,41.72Z" transform="translate(-0.09 0.08)"/></g><g id="Groupe_235" data-name="Groupe 235"><g id="Groupe_233" data-name="Groupe 233"><path id="Tracé_280" data-name="Tracé 280" class="cls-2" d="M76.43,20.43v9.28H73.61V15.23H75.8l7.54,9.51V15.25h2.82V29.71H83.88Z" transform="translate(-0.09 0.08)"/><path id="Tracé_281" data-name="Tracé 281" class="cls-2" d="M93.72,29.91a5.9,5.9,0,0,1-2.32-.43,5.3,5.3,0,0,1-2.91-2.95,5.8,5.8,0,0,1-.4-2.1,6.1,6.1,0,0,1,.39-2.15,5.22,5.22,0,0,1,1.12-1.77,5.33,5.33,0,0,1,1.79-1.22,5.91,5.91,0,0,1,2.35-.44,5.7,5.7,0,0,1,2.34.44,5.29,5.29,0,0,1,1.75,1.21,5.09,5.09,0,0,1,1.1,1.75,5.89,5.89,0,0,1,.38,2.08c0,.18,0,.35,0,.51a1.92,1.92,0,0,1,0,.41H91a3.12,3.12,0,0,0,.31,1.12,2.84,2.84,0,0,0,2.53,1.55,3.18,3.18,0,0,0,1.53-.4,2,2,0,0,0,1-1.05l2.35.65a4.82,4.82,0,0,1-1.89,2A5.88,5.88,0,0,1,93.72,29.91Zm2.77-6.44a2.82,2.82,0,0,0-.89-1.93A2.87,2.87,0,0,0,92.67,21a2.79,2.79,0,0,0-.85.54A2.88,2.88,0,0,0,91,23.47Z" transform="translate(-0.09 0.08)"/><path id="Tracé_282" data-name="Tracé 282" class="cls-2" d="M113.94,19h2.59l-4.46,10.69h-2.24L108,25l-1.81,4.69h-2.24L99.49,19h2.57l3.18,8.12,1.31-3.46-1.88-4.63h2.2L108,22.33l1.14-3.28h2.2l-1.86,4.63,1.29,3.46Z" transform="translate(-0.09 0.08)"/><path id="Tracé_283" data-name="Tracé 283" class="cls-2" d="M132.66,17.7H128v12h-2.79v-12h-4.63V15.23h12Z" transform="translate(-0.09 0.08)"/><path id="Tracé_284" data-name="Tracé 284" class="cls-2" d="M136.82,29.91a6,6,0,0,1-2.32-.43,5.25,5.25,0,0,1-2.9-2.95,5.6,5.6,0,0,1-.4-2.1,5.89,5.89,0,0,1,.39-2.15,5.28,5.28,0,0,1,2.9-3,6,6,0,0,1,2.36-.44,5.65,5.65,0,0,1,2.33.44,5.19,5.19,0,0,1,1.75,1.21A5.11,5.11,0,0,1,142,22.25a5.88,5.88,0,0,1,.37,2.08c0,.18,0,.35,0,.51a1.92,1.92,0,0,1-.05.41H134.1a3.11,3.11,0,0,0,.3,1.12,2.73,2.73,0,0,0,1.51,1.36,2.75,2.75,0,0,0,1,.19,3.18,3.18,0,0,0,1.54-.4,2.11,2.11,0,0,0,1-1.05l2.34.65a4.74,4.74,0,0,1-1.88,2A5.89,5.89,0,0,1,136.82,29.91Zm2.77-6.44a2.85,2.85,0,0,0-.88-1.93,2.89,2.89,0,0,0-2.94-.53,2.75,2.75,0,0,0-.84.54,3,3,0,0,0-.61.84,2.91,2.91,0,0,0-.27,1.08Z" transform="translate(-0.09 0.08)"/><path id="Tracé_285" data-name="Tracé 285" class="cls-2" d="M143.41,24.37a5.65,5.65,0,0,1,.38-2.12,5.36,5.36,0,0,1,1.13-1.76,5.49,5.49,0,0,1,1.77-1.2,5.87,5.87,0,0,1,2.34-.45,5.58,5.58,0,0,1,3,.76,4.9,4.9,0,0,1,1.85,2l-2.67.81a2.41,2.41,0,0,0-.92-.9,2.45,2.45,0,0,0-1.27-.32,2.78,2.78,0,0,0-1.1.23,2.72,2.72,0,0,0-.88.66,3,3,0,0,0-.6,1,4.11,4.11,0,0,0-.21,1.3,3.88,3.88,0,0,0,.22,1.31,3.54,3.54,0,0,0,.61,1,2.61,2.61,0,0,0,.88.66,2.69,2.69,0,0,0,1.08.23,2.59,2.59,0,0,0,1.36-.36,2.16,2.16,0,0,0,.87-.9l2.67.81a4.47,4.47,0,0,1-1.82,2,5.67,5.67,0,0,1-3,.78,6,6,0,0,1-2.35-.45,5.32,5.32,0,0,1-2.9-3A5.65,5.65,0,0,1,143.41,24.37Z" transform="translate(-0.09 0.08)"/><path id="Tracé_286" data-name="Tracé 286" class="cls-2" d="M165.51,29.71h-2.73v-6a3.07,3.07,0,0,0-.47-1.87,1.59,1.59,0,0,0-1.33-.6,2,2,0,0,0-.77.16,3.41,3.41,0,0,0-.78.46,4.44,4.44,0,0,0-.67.7,2.79,2.79,0,0,0-.44.9v6.24h-2.74V14.83h2.74V21a4,4,0,0,1,1.6-1.6,4.57,4.57,0,0,1,2.23-.57,3.53,3.53,0,0,1,1.69.36,2.66,2.66,0,0,1,1,.95,3.81,3.81,0,0,1,.51,1.35,8.05,8.05,0,0,1,.14,1.55Z" transform="translate(-0.09 0.08)"/><path id="Tracé_287" data-name="Tracé 287" class="cls-2" d="M177.82,29.71h-2.73v-6a3.15,3.15,0,0,0-.44-1.87,1.49,1.49,0,0,0-1.25-.59,2.35,2.35,0,0,0-.83.16,3.25,3.25,0,0,0-.81.46,4.1,4.1,0,0,0-.68.7,3,3,0,0,0-.45.9v6.24H167.9V19h2.47v2a4.1,4.1,0,0,1,1.71-1.59,5.68,5.68,0,0,1,2.53-.57,3.28,3.28,0,0,1,1.63.37,2.58,2.58,0,0,1,1,1,4,4,0,0,1,.48,1.34,8.78,8.78,0,0,1,.13,1.53Z" transform="translate(-0.09 0.08)"/><path id="Tracé_288" data-name="Tracé 288" class="cls-2" d="M185.14,29.91a5.7,5.7,0,0,1-2.34-.44A5.16,5.16,0,0,1,181,28.25a5.44,5.44,0,0,1-1.12-1.76,6,6,0,0,1,0-4.22A5.38,5.38,0,0,1,181,20.5a5.13,5.13,0,0,1,1.76-1.21,6.44,6.44,0,0,1,4.68,0,5.23,5.23,0,0,1,2.86,3,5.9,5.9,0,0,1,0,4.22,5.38,5.38,0,0,1-1.1,1.76,5.07,5.07,0,0,1-1.75,1.22A5.71,5.71,0,0,1,185.14,29.91Zm-2.79-5.52a3.75,3.75,0,0,0,.21,1.29,3.34,3.34,0,0,0,.6,1,2.49,2.49,0,0,0,.88.66,2.64,2.64,0,0,0,2.2,0,2.53,2.53,0,0,0,.89-.66,3.06,3.06,0,0,0,.59-1,3.86,3.86,0,0,0,.22-1.3,3.8,3.8,0,0,0-.22-1.29,3.16,3.16,0,0,0-.59-1,2.65,2.65,0,0,0-.89-.66,2.44,2.44,0,0,0-1.1-.23,2.48,2.48,0,0,0-1.1.24,2.64,2.64,0,0,0-.88.67,3.39,3.39,0,0,0-.6,1,4.05,4.05,0,0,0-.21,1.29Z" transform="translate(-0.09 0.08)"/><path id="Tracé_289" data-name="Tracé 289" class="cls-2" d="M192.55,14.83h2.73V26.29a1.4,1.4,0,0,0,.28.92,1,1,0,0,0,.82.32,2,2,0,0,0,.54-.08,3.73,3.73,0,0,0,.56-.2l.37,2.08a5.22,5.22,0,0,1-1.29.4,7.31,7.31,0,0,1-1.32.15,2.75,2.75,0,0,1-2-.69,2.53,2.53,0,0,1-.7-1.94Z" transform="translate(-0.09 0.08)"/><path id="Tracé_290" data-name="Tracé 290" class="cls-2" d="M204,29.91a5.7,5.7,0,0,1-2.34-.44,5.29,5.29,0,0,1-1.77-1.22,5.58,5.58,0,0,1-1.11-1.76,6,6,0,0,1,0-4.22,5.52,5.52,0,0,1,1.11-1.77,5.27,5.27,0,0,1,1.77-1.21,6.44,6.44,0,0,1,4.68,0,5.23,5.23,0,0,1,2.86,3,5.9,5.9,0,0,1,0,4.22,5.38,5.38,0,0,1-1.1,1.76,5.07,5.07,0,0,1-1.75,1.22A5.71,5.71,0,0,1,204,29.91Zm-2.79-5.52a3.75,3.75,0,0,0,.21,1.29,3.34,3.34,0,0,0,.6,1,2.49,2.49,0,0,0,.88.66,2.64,2.64,0,0,0,2.2,0,2.53,2.53,0,0,0,.89-.66,3.06,3.06,0,0,0,.59-1,3.86,3.86,0,0,0,.22-1.3,3.8,3.8,0,0,0-.22-1.29,3.16,3.16,0,0,0-.59-1,2.65,2.65,0,0,0-.89-.66,2.44,2.44,0,0,0-1.1-.23,2.48,2.48,0,0,0-1.1.24,2.64,2.64,0,0,0-.88.67,3.39,3.39,0,0,0-.6,1A4.05,4.05,0,0,0,201.17,24.39Z" transform="translate(-0.09 0.08)"/><path id="Tracé_291" data-name="Tracé 291" class="cls-2" d="M215.56,29.77a4.4,4.4,0,0,1-1.95-.43,4.7,4.7,0,0,1-1.52-1.17,5.29,5.29,0,0,1-1-1.72,6.49,6.49,0,0,1,0-4.24,5.63,5.63,0,0,1,1-1.76,4.67,4.67,0,0,1,3.59-1.61,4.17,4.17,0,0,1,2.18.56,4.73,4.73,0,0,1,1.55,1.5V19h2.39V29.2a4.87,4.87,0,0,1-.45,2.12,4.76,4.76,0,0,1-1.23,1.59,5.59,5.59,0,0,1-1.88,1,7.64,7.64,0,0,1-2.37.34,6.52,6.52,0,0,1-2.95-.58A5.84,5.84,0,0,1,210.92,32l1.49-1.45A4.18,4.18,0,0,0,214,31.77a4.59,4.59,0,0,0,2,.42,3.81,3.81,0,0,0,1.21-.17,3,3,0,0,0,1-.54,2.52,2.52,0,0,0,.7-.94,3.24,3.24,0,0,0,.26-1.34V27.85a3.64,3.64,0,0,1-1.49,1.42A4.52,4.52,0,0,1,215.56,29.77Zm.92-2.18a2.82,2.82,0,0,0,.86-.14,3.06,3.06,0,0,0,1.36-1,2.47,2.47,0,0,0,.41-.7V23.24a3.34,3.34,0,0,0-1.15-1.5,2.66,2.66,0,0,0-1.64-.57,2.26,2.26,0,0,0-1.14.27,2.72,2.72,0,0,0-.88.74,3.13,3.13,0,0,0-.56,1.05,3.84,3.84,0,0,0-.19,1.22,3.18,3.18,0,0,0,.22,1.22,3.08,3.08,0,0,0,.63,1,2.91,2.91,0,0,0,.92.67,2.75,2.75,0,0,0,1.16.25Z" transform="translate(-0.09 0.08)"/><path id="Tracé_292" data-name="Tracé 292" class="cls-2" d="M224.31,17.54V14.83H227v2.71Zm0,12.17V19H227V29.71Z" transform="translate(-0.09 0.08)"/><path id="Tracé_293" data-name="Tracé 293" class="cls-2" d="M234.46,29.91a6,6,0,0,1-2.32-.43,5.25,5.25,0,0,1-2.9-2.95,5.6,5.6,0,0,1-.4-2.1,5.89,5.89,0,0,1,.39-2.15,5.28,5.28,0,0,1,2.9-3,6,6,0,0,1,2.36-.44,5.65,5.65,0,0,1,2.33.44,5.33,5.33,0,0,1,1.76,1.21,5.24,5.24,0,0,1,1.1,1.75,5.67,5.67,0,0,1,.37,2.08c0,.18,0,.35,0,.51a1.92,1.92,0,0,1,0,.41h-8.25a3.11,3.11,0,0,0,.3,1.12,2.73,2.73,0,0,0,1.51,1.36,2.75,2.75,0,0,0,1,.19,3.18,3.18,0,0,0,1.54-.4,2.11,2.11,0,0,0,1-1.05l2.34.65a4.74,4.74,0,0,1-1.88,2A5.89,5.89,0,0,1,234.46,29.91Zm2.78-6.44A2.78,2.78,0,0,0,233.41,21a2.75,2.75,0,0,0-.84.54,3,3,0,0,0-.61.84,2.91,2.91,0,0,0-.27,1.08Z" transform="translate(-0.09 0.08)"/><path id="Tracé_294" data-name="Tracé 294" class="cls-2" d="M245.76,29.91a8.41,8.41,0,0,1-2.63-.42,6.36,6.36,0,0,1-2.2-1.23l1-1.71a8.82,8.82,0,0,0,1.9,1.05,5.34,5.34,0,0,0,1.85.36,2.38,2.38,0,0,0,1.28-.31,1,1,0,0,0,.47-.88.87.87,0,0,0-.55-.83,12.63,12.63,0,0,0-1.79-.62c-.7-.19-1.29-.37-1.78-.55a4.38,4.38,0,0,1-1.18-.6,2,2,0,0,1-.65-.77,2.7,2.7,0,0,1-.21-1,3.39,3.39,0,0,1,.32-1.47,3.19,3.19,0,0,1,.89-1.11,4,4,0,0,1,1.34-.71,5.42,5.42,0,0,1,1.66-.24,6.92,6.92,0,0,1,2.25.35,5.59,5.59,0,0,1,1.93,1.12l-1.1,1.65A7.08,7.08,0,0,0,247,21a4.4,4.4,0,0,0-1.52-.28,2.13,2.13,0,0,0-1.16.28,1,1,0,0,0-.47.92.86.86,0,0,0,.11.47,1,1,0,0,0,.36.33A3.61,3.61,0,0,0,245,23c.27.09.6.18,1,.28q1.1.29,1.89.57a5,5,0,0,1,1.28.65,2.3,2.3,0,0,1,.73.85,2.53,2.53,0,0,1,.24,1.15A2.94,2.94,0,0,1,248.93,29,4.92,4.92,0,0,1,245.76,29.91Z" transform="translate(-0.09 0.08)"/></g><g id="Groupe_234" data-name="Groupe 234" class="cls-3"><path id="Tracé_295" data-name="Tracé 295" class="cls-2" d="M81.73,41H78.46v8.47H76.9V41H73.61V39.67h8.12Z" transform="translate(-0.09 0.08)"/><path id="Tracé_296" data-name="Tracé 296" class="cls-2" d="M90.64,49.51H89.11V45.44A2.46,2.46,0,0,0,88.75,44a1.19,1.19,0,0,0-1-.48,1.72,1.72,0,0,0-.63.12,2.51,2.51,0,0,0-.61.36,2.84,2.84,0,0,0-.5.54,2.2,2.2,0,0,0-.33.69v4.31H84.13V39.39h1.53v4.32a3,3,0,0,1,1.12-1.16,3.1,3.1,0,0,1,1.56-.42,2.3,2.3,0,0,1,1.12.25,2,2,0,0,1,.7.64,2.64,2.64,0,0,1,.37.94,6.09,6.09,0,0,1,.1,1.13Z" transform="translate(-0.09 0.08)"/><path id="Tracé_297" data-name="Tracé 297" class="cls-2" d="M97,49.65a4.06,4.06,0,0,1-1.54-.3,3.55,3.55,0,0,1-1.18-.81,3.66,3.66,0,0,1-.76-1.19,3.77,3.77,0,0,1-.27-1.45,4,4,0,0,1,.27-1.45,3.7,3.7,0,0,1,.76-1.2,3.58,3.58,0,0,1,1.18-.82,4.16,4.16,0,0,1,1.56-.3,3.88,3.88,0,0,1,1.53.31,3.51,3.51,0,0,1,1.17.81,3.46,3.46,0,0,1,.74,1.18,4,4,0,0,1,.26,1.4,3,3,0,0,1,0,.32c0,.09,0,.17,0,.24H94.84a2.39,2.39,0,0,0,.23.87,2.28,2.28,0,0,0,.48.67,2.15,2.15,0,0,0,1.48.59,2.46,2.46,0,0,0,.6-.07,2.21,2.21,0,0,0,.55-.23,1.83,1.83,0,0,0,.44-.35,1.77,1.77,0,0,0,.31-.46l1.3.38A3,3,0,0,1,99,49.12,3.86,3.86,0,0,1,97,49.65Zm2.21-4.31a2.75,2.75,0,0,0-.23-.85,2.24,2.24,0,0,0-.48-.66,2.21,2.21,0,0,0-1.5-.57,2.13,2.13,0,0,0-1.48.57,2,2,0,0,0-.47.66,2.5,2.5,0,0,0-.23.85Z" transform="translate(-0.09 0.08)"/><path id="Tracé_298" data-name="Tracé 298" class="cls-2" d="M108.1,49.51V39.67h6.56V41h-5V44h4.19v1.29h-4.19v4.24Z" transform="translate(-0.09 0.08)"/><path id="Tracé_299" data-name="Tracé 299" class="cls-2" d="M119,49.65a2.07,2.07,0,0,1-1.72-.75,3.45,3.45,0,0,1-.58-2.21V42.26h1.52v4.13c0,1.3.46,2,1.39,2a2.1,2.1,0,0,0,1.23-.4,2.51,2.51,0,0,0,.9-1.16V42.26h1.53v5.45a.54.54,0,0,0,.09.37.42.42,0,0,0,.32.13v1.3a2.3,2.3,0,0,1-.39.05l-.29,0a1.11,1.11,0,0,1-.7-.23.77.77,0,0,1-.31-.59l0-.72a3.23,3.23,0,0,1-1.26,1.2A3.71,3.71,0,0,1,119,49.65Z" transform="translate(-0.09 0.08)"/><path id="Tracé_300" data-name="Tracé 300" class="cls-2" d="M130.49,49.13a8,8,0,0,1-.81.32,3.65,3.65,0,0,1-1.09.17,2.24,2.24,0,0,1-.68-.1,1.57,1.57,0,0,1-.56-.29,1.24,1.24,0,0,1-.38-.5,1.8,1.8,0,0,1-.14-.76V43.44h-1V42.26h1V39.88h1.52v2.38h1.58v1.18h-1.58v4.05a.77.77,0,0,0,.25.56.78.78,0,0,0,.53.17,1.78,1.78,0,0,0,.61-.11,2.93,2.93,0,0,0,.43-.18Z" transform="translate(-0.09 0.08)"/><path id="Tracé_301" data-name="Tracé 301" class="cls-2" d="M135.05,49.65a2.07,2.07,0,0,1-1.72-.75,3.52,3.52,0,0,1-.59-2.21V42.26h1.53v4.13q0,1.95,1.38,2a2.11,2.11,0,0,0,1.24-.4,2.51,2.51,0,0,0,.9-1.16V42.26h1.52v5.45a.6.6,0,0,0,.09.37.46.46,0,0,0,.33.13v1.3a2.3,2.3,0,0,1-.39.05l-.29,0a1.16,1.16,0,0,1-.71-.23.76.76,0,0,1-.3-.59l0-.72a3.23,3.23,0,0,1-1.26,1.2A3.74,3.74,0,0,1,135.05,49.65Z" transform="translate(-0.09 0.08)"/><path id="Tracé_302" data-name="Tracé 302" class="cls-2" d="M146.6,43.58A3.36,3.36,0,0,0,145,44a2.21,2.21,0,0,0-1,1.09v4.44h-1.52V42.26h1.41v1.62a3.35,3.35,0,0,1,1-1.2,2.36,2.36,0,0,1,1.3-.49h.38Z" transform="translate(-0.09 0.08)"/><path id="Tracé_303" data-name="Tracé 303" class="cls-2" d="M151.91,49.65a4,4,0,0,1-1.53-.3,3.59,3.59,0,0,1-1.19-.81,3.66,3.66,0,0,1-.76-1.19,4,4,0,0,1-.27-1.45,4,4,0,0,1,.27-1.45,3.7,3.7,0,0,1,.76-1.2,3.62,3.62,0,0,1,1.19-.82,4.11,4.11,0,0,1,1.55-.3,3.84,3.84,0,0,1,1.53.31,3.51,3.51,0,0,1,1.17.81,3.32,3.32,0,0,1,.74,1.18,4,4,0,0,1,.26,1.4c0,.12,0,.22,0,.32s0,.17,0,.24h-5.81a2.39,2.39,0,0,0,.23.87,2.28,2.28,0,0,0,.48.67,2.15,2.15,0,0,0,1.48.59,2.4,2.4,0,0,0,.6-.07,2.06,2.06,0,0,0,.55-.23,1.7,1.7,0,0,0,.45-.35,1.74,1.74,0,0,0,.3-.46l1.3.38a2.9,2.9,0,0,1-1.24,1.33A3.86,3.86,0,0,1,151.91,49.65Zm2.21-4.31a2.5,2.5,0,0,0-.23-.85,2.24,2.24,0,0,0-.48-.66,2.21,2.21,0,0,0-1.5-.57,2.16,2.16,0,0,0-1.48.57,2,2,0,0,0-.47.66,2.48,2.48,0,0,0-.22.85Z" transform="translate(-0.09 0.08)"/><path id="Tracé_304" data-name="Tracé 304" class="cls-2" d="M162.85,41.07V39.39h1.52v1.68Zm0,8.44V42.26h1.52v7.25Z" transform="translate(-0.09 0.08)"/><path id="Tracé_305" data-name="Tracé 305" class="cls-2" d="M170.11,49.65a5.72,5.72,0,0,1-1.74-.29,4.51,4.51,0,0,1-1.49-.81l.61-1a5.79,5.79,0,0,0,1.29.71,3.47,3.47,0,0,0,1.31.25,1.94,1.94,0,0,0,1.07-.27.85.85,0,0,0,.39-.74.69.69,0,0,0-.44-.67,9.84,9.84,0,0,0-1.39-.46c-.45-.12-.84-.23-1.16-.34a2.91,2.91,0,0,1-.79-.39,1.42,1.42,0,0,1-.45-.52,1.68,1.68,0,0,1-.14-.7,2.2,2.2,0,0,1,.22-1,1.93,1.93,0,0,1,.6-.73,2.77,2.77,0,0,1,.89-.45,4.13,4.13,0,0,1,1.11-.15,4.66,4.66,0,0,1,1.52.25,4,4,0,0,1,1.26.72l-.65.92a3.39,3.39,0,0,0-2.15-.81,1.88,1.88,0,0,0-1,.25.82.82,0,0,0-.39.77.69.69,0,0,0,.08.37.7.7,0,0,0,.27.27,2.55,2.55,0,0,0,.48.2l.74.2c.49.12.91.24,1.27.36a3.56,3.56,0,0,1,.88.42,1.47,1.47,0,0,1,.51.57,1.62,1.62,0,0,1,.17.78,2,2,0,0,1-.78,1.64A3.41,3.41,0,0,1,170.11,49.65Z" transform="translate(-0.09 0.08)"/><path id="Tracé_306" data-name="Tracé 306" class="cls-2" d="M182.07,42.58v6.93h-1.55V39.67h1.22l5.63,7.09V39.68h1.57v9.83h-1.29Z" transform="translate(-0.09 0.08)"/><path id="Tracé_307" data-name="Tracé 307" class="cls-2" d="M195.39,49.65a3.89,3.89,0,0,1-1.54-.31,3.53,3.53,0,0,1-1.92-2,4,4,0,0,1,0-2.86,3.5,3.5,0,0,1,.76-1.2,3.54,3.54,0,0,1,1.17-.82,3.8,3.8,0,0,1,4.25.82,3.63,3.63,0,0,1,.75,1.2,4,4,0,0,1,0,2.86,3.48,3.48,0,0,1-.75,1.2,3.69,3.69,0,0,1-1.18.82A3.89,3.89,0,0,1,195.39,49.65Zm-2.16-3.75a2.91,2.91,0,0,0,.17,1,2.23,2.23,0,0,0,.46.77,2.16,2.16,0,0,0,.68.52,2,2,0,0,0,1.71,0,2.16,2.16,0,0,0,.68-.52,2.47,2.47,0,0,0,.46-.78,2.9,2.9,0,0,0,0-1.93,2.41,2.41,0,0,0-.46-.79,2.16,2.16,0,0,0-.68-.52,2,2,0,0,0-.86-.18,1.84,1.84,0,0,0-.83.19,2.12,2.12,0,0,0-.69.53,2.37,2.37,0,0,0-.46.78,2.64,2.64,0,0,0-.18,1Z" transform="translate(-0.09 0.08)"/><path id="Tracé_308" data-name="Tracé 308" class="cls-2" d="M210.53,42.26H212l-3.05,7.25h-1.26l-1.35-3.37L205,49.51h-1.27l-3.06-7.25h1.46L204.46,48l1-2.69-1.26-3.08h1.25l.83,2.28.82-2.28h1.25l-1.25,3.08,1,2.69Z" transform="translate(-0.09 0.08)"/></g></g></g></g></g></svg>