<svg width="142" height="32" viewBox="0 0 142 32" fill="none" xmlns="http://www.w3.org/2000/svg">
<path d="M7.93798 15.876C12.3223 15.876 15.876 12.3212 15.876 7.93798C15.876 3.55477 12.3223 0 7.93798 0C3.55365 0 0 3.55477 0 7.93798C0 12.3212 3.55365 15.876 7.93798 15.876Z" fill="white"/>
<path d="M16.672 1.98402C17.2673 9.07491 22.9217 14.7327 30.016 15.328C30.6986 15.3853 31.2558 14.8245 31.2558 14.1395V1.9845C31.2558 1.29949 30.7005 0.744186 30.0155 0.744186H17.8605C17.1755 0.744186 16.6147 1.30142 16.672 1.98402Z" fill="white"/>
<path d="M32 24.0608C32 28.4458 28.4464 32 24.062 32C19.6777 32 16.124 28.4433 16.124 24.0608C16.124 19.6782 19.6777 16.124 24.062 16.124C28.4464 16.124 32 19.6757 32 24.0608Z" fill="white"/>
<path d="M2.10853 17.7364C1.42352 17.7364 0.868217 18.2917 0.868217 18.9767V29.8915C0.868217 30.5765 1.42352 31.1318 2.10853 31.1318H13.0233C13.7083 31.1318 14.2636 30.5765 14.2636 29.8915V18.9767C14.2636 18.2917 13.7083 17.7364 13.0233 17.7364H2.10853Z" fill="white"/>
<g clip-path="url(#clip0_1570_13905)">
<path d="M53.9881 13.4733C53.9881 16.3533 51.7023 18.639 48.7351 18.639H46.0317V22.93C46.0317 23.3518 45.6909 23.6925 45.2691 23.6925H43.7626C43.3408 23.6925 43 23.3518 43 22.93V9.07021C43 8.6484 43.3408 8.30762 43.7626 8.30762H48.7351C51.7023 8.30762 53.9881 10.5933 53.9881 13.4733ZM50.9771 13.4733C50.9771 12.1331 50.0317 11.144 48.7351 11.144H46.0317V15.8027H48.7351C50.0317 15.8027 50.9771 14.7907 50.9771 13.4733Z" fill="white"/>
<path d="M62.3207 18.3523H60.0122V22.93C60.0122 23.3518 59.6714 23.6925 59.2496 23.6925H57.7431C57.3212 23.6925 56.9805 23.3518 56.9805 22.93V9.07021C56.9805 8.6484 57.3212 8.30762 57.7431 8.30762H63.1332C65.9675 8.30762 68.2532 10.5933 68.2532 13.4068C68.2532 15.3414 67.0438 17.0764 65.2859 17.891L68.1015 22.6868C68.3633 23.1315 68.0412 23.6925 67.5259 23.6925H65.8574C65.5851 23.6925 65.3337 23.5471 65.1966 23.3123L62.3187 18.3523H62.3207ZM60.0122 15.6926H63.1332C64.276 15.6926 65.2215 14.6806 65.2215 13.4068C65.2215 12.1331 64.276 11.144 63.1332 11.144H60.0122V15.6926Z" fill="white"/>
<path d="M70.8401 16C70.8401 11.4951 74.3788 8 78.8172 8C83.2557 8 86.8172 11.4951 86.8172 16C86.8172 20.5049 83.2578 24 78.8172 24C74.3767 24 70.8401 20.4842 70.8401 16ZM83.7855 16C83.7855 13.0327 81.61 10.9444 78.8193 10.9444C76.0287 10.9444 73.8531 13.0327 73.8531 16C73.8531 18.9673 76.0287 21.0327 78.8193 21.0327C81.61 21.0327 83.7855 18.9444 83.7855 16Z" fill="white"/>
<path d="M97.2152 23.3206L94.4474 18.6827L91.6796 23.3206C91.5424 23.5513 91.2931 23.6925 91.025 23.6925H89.2048C88.6874 23.6925 88.3653 23.1274 88.6313 22.6827L92.7331 15.8027L88.8723 9.31749C88.6063 8.87281 88.9284 8.30762 89.4458 8.30762H91.2661C91.5341 8.30762 91.7835 8.44892 91.9227 8.67957L94.4474 12.9227L96.972 8.67957C97.1092 8.44892 97.3585 8.30762 97.6287 8.30762H99.4468C99.9642 8.30762 100.286 8.87281 100.02 9.31749L96.1617 15.7798L100.284 22.6827C100.55 23.1274 100.23 23.6925 99.7107 23.6925H97.8697C97.6017 23.6925 97.3523 23.5513 97.2152 23.3206Z" fill="white"/>
<path d="M107.37 9.07021V22.93C107.37 23.3518 107.029 23.6925 106.607 23.6925H105.101C104.679 23.6925 104.338 23.3518 104.338 22.93V9.07021C104.338 8.6484 104.679 8.30762 105.101 8.30762H106.607C107.029 8.30762 107.37 8.6484 107.37 9.07021Z" fill="white"/>
<path d="M115.351 11.2084V14.8572H120.567C120.989 14.8572 121.329 15.198 121.329 15.6198V16.9954C121.329 17.4172 120.989 17.758 120.567 17.758H115.351V22.93C115.351 23.3518 115.01 23.6925 114.589 23.6925H113.082C112.66 23.6925 112.32 23.3518 112.32 22.93V9.07021C112.32 8.6484 112.66 8.30762 113.082 8.30762H120.743C121.165 8.30762 121.506 8.6484 121.506 9.07021V10.4458C121.506 10.8676 121.165 11.2084 120.743 11.2084H115.353H115.351Z" fill="white"/>
<path d="M132.762 8.70866L130.239 13.384L127.717 8.70866C127.584 8.46138 127.326 8.30762 127.046 8.30762H125.323C124.818 8.30762 124.496 8.84788 124.735 9.29255L128.592 16.4385L125.209 22.7076C124.97 23.1523 125.292 23.6925 125.797 23.6925H127.519C127.8 23.6925 128.058 23.5388 128.191 23.2915L135.744 9.29255C135.983 8.84788 135.661 8.30762 135.156 8.30762H133.433C133.153 8.30762 132.895 8.46138 132.762 8.70866Z" fill="white"/>
</g>
<defs>
<clipPath id="clip0_1570_13905">
<rect width="92.8243" height="16" fill="white" transform="translate(43 8)"/>
</clipPath>
</defs>
</svg>
